<?xml version="1.0" encoding="UTF-8"?>
<!DOCTYPE svg PUBLIC "-//W3C//DTD SVG 1.1//EN" "http://www.w3.org/Graphics/SVG/1.1/DTD/svg11.dtd">
<svg xmlns="http://www.w3.org/2000/svg" version="1.1" width="512px" height="512px" style="shape-rendering:geometricPrecision; text-rendering:geometricPrecision; image-rendering:optimizeQuality; fill-rule:evenodd; clip-rule:evenodd" xmlns:xlink="http://www.w3.org/1999/xlink">
<g><path style="opacity:0.982" fill="#000000" d="M 249.5,15.5 C 270.148,12.6595 287.648,18.6595 302,33.5C 305.354,38.2074 308.187,43.2074 310.5,48.5C 328.391,41.4346 346.058,41.9346 363.5,50C 364.574,50.7387 365.241,51.7387 365.5,53C 364.128,56.0261 363.462,59.1927 363.5,62.5C 349.398,64.4894 341.731,72.6561 340.5,87C 340.924,93.1803 343.257,98.5136 347.5,103C 337.329,116.463 338.662,128.797 351.5,140C 355.231,142.099 359.231,143.266 363.5,143.5C 366.328,160.477 376.328,167.644 393.5,165C 397.095,163.287 400.595,161.453 404,159.5C 407.941,162.72 412.441,164.72 417.5,165.5C 413.802,178.711 405.802,188.544 393.5,195C 401.825,213.383 397.825,228.717 381.5,241C 372.848,245.996 363.515,248.496 353.5,248.5C 352.022,258.755 348.855,268.421 344,277.5C 341.255,271.002 337.755,265.002 333.5,259.5C 335.208,253.921 336.042,248.254 336,242.5C 319.258,232.846 313.424,218.68 318.5,200C 297.601,203.101 278.101,199.268 260,188.5C 241.834,199.133 222.334,202.967 201.5,200C 206.605,218.628 200.772,232.795 184,242.5C 187.244,276.11 205.077,297.944 237.5,308C 244.862,310.025 252.362,311.191 260,311.5C 270.353,310.759 280.52,309.259 290.5,307C 295.045,311.441 300.379,314.608 306.5,316.5C 272.585,333.318 239.252,332.151 206.5,313C 183.381,297.283 170.048,275.45 166.5,247.5C 145.479,248.751 130.979,239.751 123,220.5C 120.646,211.849 121.48,203.515 125.5,195.5C 99.4458,178.283 93.9458,155.949 109,128.5C 116.658,118.918 126.492,112.751 138.5,110C 126.717,81.208 135.051,60.208 163.5,47C 179.377,40.9111 195.044,41.4111 210.5,48.5C 214.7,35.4614 223.033,25.9614 235.5,20C 240.254,18.3583 244.921,16.8583 249.5,15.5 Z"/></g>
<g><path style="opacity:0.917" fill="#000000" d="M 384.5,54.5 C 386.927,54.523 389.26,55.023 391.5,56C 395.348,60.0156 399.348,63.8489 403.5,67.5C 407.652,63.8489 411.652,60.0156 415.5,56C 425.577,53.2987 429.743,57.132 428,67.5C 424.353,71.9819 420.519,76.3152 416.5,80.5C 419.484,83.9846 422.651,87.318 426,90.5C 430.199,85.9657 434.699,81.799 439.5,78C 450.053,76.9261 453.553,81.4261 450,91.5C 446.167,95.3333 442.333,99.1667 438.5,103C 442.333,106.833 446.167,110.667 450,114.5C 452.917,126.913 448.417,130.747 436.5,126C 433,122.5 429.5,119 426,115.5C 422.651,118.682 419.484,122.015 416.5,125.5C 420.519,129.685 424.353,134.018 428,138.5C 430.115,145.612 427.615,149.945 420.5,151.5C 418.459,150.764 416.459,149.931 414.5,149C 410.985,145.318 407.318,141.818 403.5,138.5C 399.315,142.519 394.982,146.353 390.5,150C 380.828,152.329 376.995,148.496 379,138.5C 382.647,134.018 386.481,129.685 390.5,125.5C 387.516,122.015 384.349,118.682 381,115.5C 376.756,120.415 371.923,124.581 366.5,128C 356.613,128.416 353.446,123.916 357,114.5C 360.833,110.667 364.667,106.833 368.5,103C 364.667,99.1667 360.833,95.3333 357,91.5C 353.447,81.4261 356.947,76.9261 367.5,78C 372.301,81.799 376.801,85.9657 381,90.5C 384.349,87.318 387.516,83.9846 390.5,80.5C 386.481,76.3152 382.647,71.9819 379,67.5C 377.102,61.3867 378.935,57.0534 384.5,54.5 Z M 402.5,93.5 C 406.57,96.0604 410.236,99.2271 413.5,103C 410.318,106.349 406.985,109.516 403.5,112.5C 400.015,109.516 396.682,106.349 393.5,103C 396.704,99.9641 399.704,96.7974 402.5,93.5 Z"/></g>
<g><path style="opacity:0.95" fill="#000000" d="M 278.5,234.5 C 282.406,234.894 286.072,236.06 289.5,238C 301.667,250.167 313.833,262.333 326,274.5C 331.027,282.716 330.527,290.55 324.5,298C 317.733,302.257 310.733,302.59 303.5,299C 290.667,286.167 277.833,273.333 265,260.5C 260.291,246.916 264.791,238.249 278.5,234.5 Z"/></g>
<g><path style="opacity:0.869" fill="#000000" d="M 307.5,235.5 C 323.467,233.634 330.634,240.634 329,256.5C 328.269,258.899 327.102,261.065 325.5,263C 324.833,263.667 324.167,263.667 323.5,263C 316.333,255.833 309.167,248.667 302,241.5C 301.333,240.833 301.333,240.167 302,239.5C 303.812,238.023 305.645,236.69 307.5,235.5 Z"/></g>
<g><path style="opacity:0.917" fill="#000000" d="M 88.5,262.5 C 90.9267,262.523 93.26,263.023 95.5,264C 99.3484,268.016 103.348,271.849 107.5,275.5C 111.652,271.849 115.652,268.016 119.5,264C 129.577,261.299 133.743,265.132 132,275.5C 128.353,279.982 124.519,284.315 120.5,288.5C 123.484,291.985 126.651,295.318 130,298.5C 134.199,293.966 138.699,289.799 143.5,286C 154.053,284.926 157.553,289.426 154,299.5C 150.167,303.333 146.333,307.167 142.5,311C 146.333,314.833 150.167,318.667 154,322.5C 156.917,334.913 152.417,338.747 140.5,334C 137,330.5 133.5,327 130,323.5C 126.651,326.682 123.484,330.015 120.5,333.5C 124.519,337.685 128.353,342.018 132,346.5C 134.115,353.612 131.615,357.945 124.5,359.5C 122.459,358.764 120.459,357.931 118.5,357C 114.985,353.318 111.318,349.818 107.5,346.5C 103.315,350.519 98.9819,354.353 94.5,358C 84.8282,360.329 80.9949,356.496 83,346.5C 86.6475,342.018 90.4808,337.685 94.5,333.5C 91.516,330.015 88.3493,326.682 85,323.5C 80.7564,328.415 75.9231,332.581 70.5,336C 60.6126,336.416 57.446,331.916 61,322.5C 64.8333,318.667 68.6667,314.833 72.5,311C 68.6667,307.167 64.8333,303.333 61,299.5C 57.4467,289.426 60.9467,284.926 71.5,286C 76.3006,289.799 80.8006,293.966 85,298.5C 88.3493,295.318 91.516,291.985 94.5,288.5C 90.4808,284.315 86.6475,279.982 83,275.5C 81.1016,269.387 82.935,265.053 88.5,262.5 Z M 106.5,301.5 C 110.57,304.06 114.236,307.227 117.5,311C 114.318,314.349 110.985,317.516 107.5,320.5C 104.015,317.516 100.682,314.349 97.5,311C 100.704,307.964 103.704,304.797 106.5,301.5 Z"/></g>
<g><path style="opacity:0.894" fill="#000000" d="M 267.5,273.5 C 275.632,281.131 283.632,288.964 291.5,297C 284.68,302.226 277.347,302.893 269.5,299C 261.091,291.063 260.424,282.563 267.5,273.5 Z"/></g>
<g><path style="opacity:0.938" fill="#000000" d="M 211.5,326.5 C 218.589,326.116 225.589,326.616 232.5,328C 235.879,331.412 237.379,335.578 237,340.5C 241.665,354.158 251.165,359.991 265.5,358C 277.85,353.627 284.016,344.794 284,331.5C 287.679,327.272 292.346,325.605 298,326.5C 360.128,328.996 403.462,358.663 428,415.5C 435.079,434.302 437.413,453.635 435,473.5C 430.999,484.833 423.166,492 411.5,495C 310.5,495.667 209.5,495.667 108.5,495C 96.8423,492.009 89.009,484.842 85,473.5C 82.1526,410.694 108.986,365.527 165.5,338C 180.418,331.937 195.751,328.104 211.5,326.5 Z M 213.5,343.5 C 215.833,343.5 218.167,343.5 220.5,343.5C 225.673,363.825 238.84,374.491 260,375.5C 281.104,374.557 294.271,363.891 299.5,343.5C 305.613,343.743 311.613,344.577 317.5,346C 297.537,368.965 277.204,391.631 256.5,414C 238.824,414.833 221.157,414.666 203.5,413.5C 199.383,397.194 189.05,389.028 172.5,389C 167.605,393.716 167.272,398.716 171.5,404C 177.842,405.011 182.509,408.345 185.5,414C 177.167,414.333 168.833,414.667 160.5,415C 156.376,415.982 154.376,418.648 154.5,423C 154.696,426.267 156.03,428.934 158.5,431C 164.196,431.17 169.862,431.67 175.5,432.5C 169.429,447.715 163.763,463.048 158.5,478.5C 142.83,478.667 127.163,478.5 111.5,478C 106.359,476.193 102.859,472.693 101,467.5C 100.527,425.28 117.027,391.447 150.5,366C 169.623,353.016 190.623,345.516 213.5,343.5 Z M 336.5,350.5 C 357.31,356.667 374.644,368 388.5,384.5C 356.176,397.577 323.676,410.244 291,422.5C 286.896,420.198 282.73,418.032 278.5,416C 297.67,393.998 317.003,372.165 336.5,350.5 Z M 399.5,398.5 C 412.809,418.387 419.309,440.387 419,464.5C 418.116,471.049 414.616,475.549 408.5,478C 372.833,478.667 337.167,478.667 301.5,478C 309.858,464.555 310.525,450.722 303.5,436.5C 335.669,424.005 367.669,411.338 399.5,398.5 Z M 208.5,431.5 C 218.855,431.168 229.188,431.501 239.5,432.5C 234.039,446.05 228.872,459.717 224,473.5C 218.531,459.592 213.365,445.592 208.5,431.5 Z M 257.5,431.5 C 266.499,430.599 274.832,432.432 282.5,437C 294.5,449.333 294.5,461.667 282.5,474C 279.618,475.608 276.618,476.941 273.5,478C 262.485,478.832 251.485,478.666 240.5,477.5C 246.571,462.285 252.237,446.952 257.5,431.5 Z M 191.5,437.5 C 196.927,450.87 202.26,464.37 207.5,478C 197.151,478.832 186.817,478.666 176.5,477.5C 181.9,464.298 186.9,450.965 191.5,437.5 Z"/></g>
</svg>
