<?xml version="1.0" encoding="UTF-8"?>
<!DOCTYPE svg PUBLIC "-//W3C//DTD SVG 1.1//EN" "http://www.w3.org/Graphics/SVG/1.1/DTD/svg11.dtd">
<svg xmlns="http://www.w3.org/2000/svg" version="1.1" width="512px" height="512px" style="shape-rendering:geometricPrecision; text-rendering:geometricPrecision; image-rendering:optimizeQuality; fill-rule:evenodd; clip-rule:evenodd" xmlns:xlink="http://www.w3.org/1999/xlink">
<g><path style="opacity:0.989" fill="#000000" d="M 246.5,-0.5 C 252.5,-0.5 258.5,-0.5 264.5,-0.5C 283.313,5.65668 293.646,18.6567 295.5,38.5C 326.176,44.259 354.342,55.9257 380,73.5C 396.751,60.4005 414.251,59.2338 432.5,70C 451.844,88.7946 453.511,109.128 437.5,131C 455.072,156.653 466.738,184.82 472.5,215.5C 492.343,217.354 505.343,227.687 511.5,246.5C 511.5,252.5 511.5,258.5 511.5,264.5C 505.343,283.313 492.343,293.646 472.5,295.5C 466.738,326.18 455.072,354.347 437.5,380C 450.6,396.751 451.766,414.251 441,432.5C 422.205,451.844 401.872,453.511 380,437.5C 354.347,455.072 326.18,466.738 295.5,472.5C 293.646,492.343 283.313,505.343 264.5,511.5C 258.5,511.5 252.5,511.5 246.5,511.5C 227.687,505.343 217.354,492.343 215.5,472.5C 184.82,466.738 156.653,455.072 131,437.5C 114.249,450.6 96.7487,451.766 78.5,441C 59.1556,422.205 57.4889,401.872 73.5,380C 55.9283,354.347 44.2616,326.18 38.5,295.5C 18.6456,293.633 5.6456,283.299 -0.5,264.5C -0.5,258.5 -0.5,252.5 -0.5,246.5C 5.6456,227.701 18.6456,217.367 38.5,215.5C 44.2616,184.82 55.9283,156.653 73.5,131C 60.4005,114.249 59.2338,96.7487 70,78.5C 88.7946,59.1556 109.128,57.4889 131,73.5C 156.653,55.9283 184.82,44.2616 215.5,38.5C 217.354,18.6567 227.687,5.65668 246.5,-0.5 Z M 178.5,105.5 C 195.072,103.132 209.405,107.632 221.5,119C 214.667,125.833 207.833,132.667 201,139.5C 197.308,135.768 192.808,134.101 187.5,134.5C 175.548,135.119 169.214,141.452 168.5,153.5C 168.402,158.542 170.068,162.875 173.5,166.5C 167.167,173.5 160.5,180.167 153.5,186.5C 141.411,173.822 137.244,158.822 141,141.5C 147.017,122.603 159.517,110.603 178.5,105.5 Z M 333.5,134.5 C 344.167,134.5 354.833,134.5 365.5,134.5C 365.5,144.167 365.5,153.833 365.5,163.5C 354.833,163.5 344.167,163.5 333.5,163.5C 333.5,153.833 333.5,144.167 333.5,134.5 Z M 247.5,207.5 C 276.79,206.047 295.29,219.38 303,247.5C 304.947,276.776 291.781,295.276 263.5,303C 234.224,304.947 215.724,291.781 208,263.5C 206.182,234.102 219.349,215.436 247.5,207.5 Z M 373.5,207.5 C 384.167,207.5 394.833,207.5 405.5,207.5C 405.5,217.167 405.5,226.833 405.5,236.5C 394.833,236.5 384.167,236.5 373.5,236.5C 373.5,226.833 373.5,217.167 373.5,207.5 Z M 143.5,310.5 C 168.577,310.109 185.744,321.443 195,344.5C 199.901,361.938 196.401,377.438 184.5,391C 183.833,391.667 183.167,391.667 182.5,391C 176.167,384.667 169.833,378.333 163.5,372C 170.762,361.497 169.762,351.83 160.5,343C 151.963,338.032 143.796,338.532 136,344.5C 129.167,337.667 122.333,330.833 115.5,324C 123.739,317.046 133.073,312.546 143.5,310.5 Z M 309.5,368.5 C 320.5,368.5 331.5,368.5 342.5,368.5C 342.5,378.167 342.5,387.833 342.5,397.5C 331.5,397.5 320.5,397.5 309.5,397.5C 309.5,387.833 309.5,378.167 309.5,368.5 Z"/></g>
<g><path style="opacity:0.939" fill="#000000" d="M 249.5,236.5 C 268.994,235.488 276.827,244.488 273,263.5C 267.185,273.553 258.685,276.719 247.5,273C 238.188,267.869 234.688,260.036 237,249.5C 239.353,243.315 243.52,238.982 249.5,236.5 Z"/></g>
</svg>
