<?xml version="1.0" encoding="UTF-8"?>
<!DOCTYPE svg PUBLIC "-//W3C//DTD SVG 1.1//EN" "http://www.w3.org/Graphics/SVG/1.1/DTD/svg11.dtd">
<svg xmlns="http://www.w3.org/2000/svg" version="1.1" width="512px" height="512px" style="shape-rendering:geometricPrecision; text-rendering:geometricPrecision; image-rendering:optimizeQuality; fill-rule:evenodd; clip-rule:evenodd" xmlns:xlink="http://www.w3.org/1999/xlink">
<g><path style="opacity:0.944" fill="#000000" d="M 38.5,-0.5 C 41.5,-0.5 44.5,-0.5 47.5,-0.5C 49.6959,0.854084 51.1959,2.85408 52,5.5C 52.3333,155.833 52.6667,306.167 53,456.5C 203.43,457.333 353.93,457.833 504.5,458C 509.738,461.274 510.904,465.774 508,471.5C 507.097,472.701 505.931,473.535 504.5,474C 490.171,474.5 475.837,474.667 461.5,474.5C 461.667,485.838 461.5,497.172 461,508.5C 459.955,509.373 459.122,510.373 458.5,511.5C 454.5,511.5 450.5,511.5 446.5,511.5C 445.68,509.86 444.847,508.193 444,506.5C 443.5,495.839 443.333,485.172 443.5,474.5C 428.833,474.5 414.167,474.5 399.5,474.5C 399.667,485.838 399.5,497.172 399,508.5C 397.955,509.373 397.122,510.373 396.5,511.5C 392.5,511.5 388.5,511.5 384.5,511.5C 383.213,509.363 382.379,507.03 382,504.5C 381.5,494.506 381.334,484.506 381.5,474.5C 368.167,474.5 354.833,474.5 341.5,474.5C 341.667,485.172 341.5,495.839 341,506.5C 340.634,508.452 339.801,510.118 338.5,511.5C 334.5,511.5 330.5,511.5 326.5,511.5C 325.878,510.373 325.045,509.373 324,508.5C 323.5,497.172 323.333,485.838 323.5,474.5C 308.833,474.5 294.167,474.5 279.5,474.5C 279.667,485.505 279.5,496.505 279,507.5C 278.338,508.984 277.504,510.317 276.5,511.5C 272.5,511.5 268.5,511.5 264.5,511.5C 263.496,510.317 262.662,508.984 262,507.5C 261.5,496.505 261.333,485.505 261.5,474.5C 246.833,474.5 232.167,474.5 217.5,474.5C 217.667,485.505 217.5,496.505 217,507.5C 216.338,508.984 215.504,510.317 214.5,511.5C 210.5,511.5 206.5,511.5 202.5,511.5C 201.496,510.317 200.662,508.984 200,507.5C 199.5,496.505 199.333,485.505 199.5,474.5C 186.167,474.5 172.833,474.5 159.5,474.5C 159.667,485.838 159.5,497.172 159,508.5C 157.955,509.373 157.122,510.373 156.5,511.5C 152.5,511.5 148.5,511.5 144.5,511.5C 143.213,509.363 142.379,507.03 142,504.5C 141.5,494.506 141.334,484.506 141.5,474.5C 127.5,474.5 113.5,474.5 99.5,474.5C 99.6665,485.172 99.4998,495.839 99,506.5C 98.1534,508.193 97.3201,509.86 96.5,511.5C 92.5,511.5 88.5,511.5 84.5,511.5C 83.8783,510.373 83.045,509.373 82,508.5C 81.5001,497.172 81.3335,485.838 81.5,474.5C 70.495,474.667 59.495,474.5 48.5,474C 41.3333,472.167 36.8333,467.667 35,460.5C 34.5001,449.172 34.3335,437.838 34.5,426.5C 25.1607,426.666 15.8274,426.5 6.5,426C 2.91583,424.336 1.24917,421.503 1.5,417.5C 1.18092,412.956 3.18092,410.123 7.5,409C 16.4938,408.5 25.4938,408.334 34.5,408.5C 34.5,393.833 34.5,379.167 34.5,364.5C 25.1607,364.666 15.8274,364.5 6.5,364C 2.91583,362.336 1.24917,359.503 1.5,355.5C 1.1668,350.995 3.1668,348.161 7.5,347C 16.4938,346.5 25.4938,346.334 34.5,346.5C 34.5,331.833 34.5,317.167 34.5,302.5C 24.8276,302.666 15.1609,302.5 5.5,302C 1.67295,298.692 0.506281,294.526 2,289.5C 3.63735,287.19 5.80402,285.69 8.5,285C 17.1603,284.5 25.8269,284.334 34.5,284.5C 34.5,271.5 34.5,258.5 34.5,245.5C 25.4938,245.666 16.4938,245.5 7.5,245C 3.1668,243.839 1.1668,241.005 1.5,236.5C 1.24917,232.497 2.91583,229.664 6.5,228C 15.8274,227.5 25.1607,227.334 34.5,227.5C 34.5,212.833 34.5,198.167 34.5,183.5C 25.4938,183.666 16.4938,183.5 7.5,183C 3.18092,181.877 1.18092,179.044 1.5,174.5C 1.24917,170.497 2.91583,167.664 6.5,166C 15.8274,165.5 25.1607,165.334 34.5,165.5C 34.5,150.833 34.5,136.167 34.5,121.5C 25.1607,121.666 15.8274,121.5 6.5,121C 2.91583,119.336 1.24917,116.503 1.5,112.5C 1.18092,107.956 3.18092,105.123 7.5,104C 16.4938,103.5 25.4938,103.334 34.5,103.5C 34.5,90.1667 34.5,76.8333 34.5,63.5C 25.1607,63.6665 15.8274,63.4998 6.5,63C 1.84511,60.1034 0.345106,55.9367 2,50.5C 3.16667,49.3333 4.33333,48.1667 5.5,47C 15.1003,45.6091 24.767,45.1091 34.5,45.5C 34.3334,31.496 34.5001,17.496 35,3.5C 36.3756,2.29493 37.5423,0.961599 38.5,-0.5 Z"/></g>
<g><path style="opacity:0.93" fill="#000000" d="M 398.5,20.5 C 418.169,20.3334 437.836,20.5 457.5,21C 458.931,21.4652 460.097,22.2986 461,23.5C 462.642,43.4104 462.975,63.4104 462,83.5C 459.459,88.0685 455.625,89.5685 450.5,88C 448.714,87.2155 447.214,86.0488 446,84.5C 444.73,72.9042 444.064,61.2376 444,49.5C 406.861,87.639 369.361,125.472 331.5,163C 328.5,165 325.5,165 322.5,163C 305.653,145.986 288.653,129.153 271.5,112.5C 225.041,159.459 178.374,206.293 131.5,253C 119.258,255.762 115.091,251.262 119,239.5C 167.833,190.667 216.667,141.833 265.5,93C 269.366,90.8802 273.033,91.2135 276.5,94C 293,110.5 309.5,127 326,143.5C 361.167,108.333 396.333,73.1667 431.5,38C 419.762,37.9362 408.096,37.2696 396.5,36C 390.859,30.0356 391.526,24.8689 398.5,20.5 Z"/></g>
<g><path style="opacity:0.988" fill="#000000" d="M 416.5,146.5 C 430.857,146.323 445.19,146.823 459.5,148C 466.333,150.167 470.833,154.667 473,161.5C 473.667,245.5 473.667,329.5 473,413.5C 470.833,420.333 466.333,424.833 459.5,427C 445.167,427.667 430.833,427.667 416.5,427C 409.333,425.167 404.833,420.667 403,413.5C 402.333,328.833 402.333,244.167 403,159.5C 405.442,152.888 409.942,148.555 416.5,146.5 Z"/></g>
<g><path style="opacity:0.986" fill="#000000" d="M 311.5,203.5 C 325.559,203.071 339.559,203.571 353.5,205C 359.088,207.586 362.921,211.753 365,217.5C 365.667,283.167 365.667,348.833 365,414.5C 362.737,421.097 358.237,425.264 351.5,427C 337.167,427.667 322.833,427.667 308.5,427C 301.599,424.432 297.099,419.598 295,412.5C 294.333,347.833 294.333,283.167 295,218.5C 297.558,210.103 303.058,205.103 311.5,203.5 Z"/></g>
<g><path style="opacity:0.974" fill="#000000" d="M 205.5,236.5 C 219.218,236.094 232.885,236.594 246.5,238C 253.382,240.907 257.548,246.074 259,253.5C 259.667,305.833 259.667,358.167 259,410.5C 257.829,418.675 253.329,424.175 245.5,427C 230.833,427.667 216.167,427.667 201.5,427C 194.127,424.296 189.627,419.13 188,411.5C 187.333,358.833 187.333,306.167 188,253.5C 189.905,243.656 195.738,237.989 205.5,236.5 Z"/></g>
<g><path style="opacity:0.981" fill="#000000" d="M 99.5,300.5 C 113.226,300.073 126.893,300.573 140.5,302C 147.07,304.238 151.237,308.738 153,315.5C 153.667,348.167 153.667,380.833 153,413.5C 150.833,420.333 146.333,424.833 139.5,427C 125.5,427.667 111.5,427.667 97.5,427C 90.4269,424.928 85.5936,420.428 83,413.5C 82.3333,380.5 82.3333,347.5 83,314.5C 85.9805,306.674 91.4805,302.007 99.5,300.5 Z"/></g>
</svg>
