<?xml version="1.0" encoding="UTF-8"?>
<!DOCTYPE svg PUBLIC "-//W3C//DTD SVG 1.1//EN" "http://www.w3.org/Graphics/SVG/1.1/DTD/svg11.dtd">
<svg xmlns="http://www.w3.org/2000/svg" version="1.1" width="512px" height="512px" style="shape-rendering:geometricPrecision; text-rendering:geometricPrecision; image-rendering:optimizeQuality; fill-rule:evenodd; clip-rule:evenodd" xmlns:xlink="http://www.w3.org/1999/xlink">
<g><path style="opacity:0.984" fill="#000000" d="M 228.5,-0.5 C 246.5,-0.5 264.5,-0.5 282.5,-0.5C 343.859,8.35626 387.359,41.0229 413,97.5C 420.975,117.04 424.975,137.373 425,158.5C 425.667,217.167 425.667,275.833 425,334.5C 368.57,335.166 312.07,335.499 255.5,335.5C 198.93,335.499 142.43,335.166 86,334.5C 85.3333,275.833 85.3333,217.167 86,158.5C 88.0993,96.1018 115.933,49.2685 169.5,18C 188.181,8.27075 207.847,2.10409 228.5,-0.5 Z M 191.5,136.5 C 234.168,136.333 276.835,136.5 319.5,137C 330.51,141.187 333.677,148.687 329,159.5C 326.9,162.467 324.066,164.3 320.5,165C 277.167,165.667 233.833,165.667 190.5,165C 183.49,162.987 179.823,158.32 179.5,151C 180.58,143.637 184.58,138.804 191.5,136.5 Z M 191.5,196.5 C 234.168,196.333 276.835,196.5 319.5,197C 330.51,201.187 333.677,208.687 329,219.5C 326.9,222.467 324.066,224.3 320.5,225C 277.167,225.667 233.833,225.667 190.5,225C 183.49,222.987 179.823,218.32 179.5,211C 180.58,203.637 184.58,198.804 191.5,196.5 Z M 191.5,256.5 C 234.168,256.333 276.835,256.5 319.5,257C 330.452,261.184 333.618,268.684 329,279.5C 327.062,282.106 324.562,283.939 321.5,285C 277.5,285.667 233.5,285.667 189.5,285C 178.994,279.317 176.994,271.484 183.5,261.5C 185.928,259.295 188.595,257.628 191.5,256.5 Z"/></g>
<g><path style="opacity:0.988" fill="#000000" d="M 40.5,364.5 C 183.834,364.333 327.167,364.5 470.5,365C 475.838,367.007 479.004,370.841 480,376.5C 480.5,390.496 480.667,404.496 480.5,418.5C 330.5,418.5 180.5,418.5 30.5,418.5C 30.3334,404.496 30.5001,390.496 31,376.5C 32.1937,370.819 35.3604,366.819 40.5,364.5 Z"/></g>
<g><path style="opacity:0.988" fill="#000000" d="M 511.5,457.5 C 511.5,475.5 511.5,493.5 511.5,511.5C 340.833,511.5 170.167,511.5 -0.5,511.5C -0.5,493.5 -0.5,475.5 -0.5,457.5C 1.73934,452.766 5.40601,449.599 10.5,448C 173.833,447.333 337.167,447.333 500.5,448C 505.594,449.599 509.261,452.766 511.5,457.5 Z"/></g>
</svg>
