<?xml version="1.0" encoding="UTF-8"?>
<!DOCTYPE svg PUBLIC "-//W3C//DTD SVG 1.1//EN" "http://www.w3.org/Graphics/SVG/1.1/DTD/svg11.dtd">
<svg xmlns="http://www.w3.org/2000/svg" version="1.1" width="512px" height="512px" style="shape-rendering:geometricPrecision; text-rendering:geometricPrecision; image-rendering:optimizeQuality; fill-rule:evenodd; clip-rule:evenodd" xmlns:xlink="http://www.w3.org/1999/xlink">
<g><path style="opacity:0.991" fill="#000000" d="M 250.5,32.5 C 265.626,32.1582 279.959,35.3249 293.5,42C 350.614,80.9726 407.114,120.806 463,161.5C 473.947,173.059 480.947,186.726 484,202.5C 485.639,270.143 485.973,337.809 485,405.5C 479.903,441.93 459.736,465.43 424.5,476C 420.205,476.912 415.872,477.579 411.5,478C 393.17,478.5 374.836,478.667 356.5,478.5C 356.667,434.832 356.5,391.165 356,347.5C 350.274,302.2 325.774,272.366 282.5,258C 230.582,247.382 191.415,264.882 165,310.5C 159.425,322.226 156.091,334.56 155,347.5C 154.5,391.165 154.333,434.832 154.5,478.5C 136.164,478.667 117.83,478.5 99.5,478C 67.8815,474.448 45.3815,458.281 32,429.5C 28.7474,421.823 26.7474,413.823 26,405.5C 25.0275,337.809 25.3608,270.143 27,202.5C 31.1121,182.762 40.9454,166.596 56.5,154C 108.5,117.667 160.5,81.3333 212.5,45C 224.312,37.8955 236.979,33.7288 250.5,32.5 Z"/></g>
<g><path style="opacity:0.984" fill="#000000" d="M 245.5,285.5 C 284.132,283.381 309.966,300.381 323,336.5C 323.853,340.469 324.519,344.469 325,348.5C 325.5,391.832 325.667,435.165 325.5,478.5C 278.833,478.5 232.167,478.5 185.5,478.5C 185.333,435.165 185.5,391.832 186,348.5C 191.325,313.678 211.158,292.678 245.5,285.5 Z"/></g>
</svg>
