<?xml version="1.0" encoding="UTF-8"?>
<!DOCTYPE svg PUBLIC "-//W3C//DTD SVG 1.1//EN" "http://www.w3.org/Graphics/SVG/1.1/DTD/svg11.dtd">
<svg xmlns="http://www.w3.org/2000/svg" version="1.1" width="512px" height="512px" style="shape-rendering:geometricPrecision; text-rendering:geometricPrecision; image-rendering:optimizeQuality; fill-rule:evenodd; clip-rule:evenodd" xmlns:xlink="http://www.w3.org/1999/xlink">
<g><path style="opacity:0.977" fill="#000000" d="M 254.5,-0.5 C 261.167,-0.5 267.833,-0.5 274.5,-0.5C 303.332,8.45213 316.165,28.1188 313,58.5C 306.27,82.8954 290.27,95.8954 265,97.5C 237.886,96.0517 221.553,82.0517 216,55.5C 214.246,26.6436 227.079,7.97693 254.5,-0.5 Z"/></g>
<g><path style="opacity:0.976" fill="#000000" d="M 184.5,511.5 C 182.167,511.5 179.833,511.5 177.5,511.5C 177.778,487.324 178.445,463.158 179.5,439C 180.017,432.653 179.017,426.653 176.5,421C 177.911,388.854 179.244,356.688 180.5,324.5C 180.914,320.283 179.58,319.116 176.5,321C 164.954,323.48 157.121,319.314 153,308.5C 147.166,267.817 147.166,227.15 153,186.5C 156.69,157.625 168.524,132.792 188.5,112C 207.554,96.1899 228.887,92.1899 252.5,100C 263.846,102.622 274.846,101.622 285.5,97C 289.821,96.501 294.154,96.3343 298.5,96.5C 297.173,115.143 293.006,133.143 286,150.5C 279.428,166.145 271.928,181.311 263.5,196C 254.833,196.333 246.167,196.667 237.5,197C 222.602,203.638 218.435,214.472 225,229.5C 228.414,234.252 232.914,237.419 238.5,239C 266.879,241.158 295.212,240.658 323.5,237.5C 323.667,318.834 323.5,400.167 323,481.5C 317.247,497.964 305.747,504.464 288.5,501C 278.566,498.067 272.4,491.567 270,481.5C 269.5,414.167 269.333,346.834 269.5,279.5C 266.5,279.5 263.5,279.5 260.5,279.5C 260.5,309.167 260.5,338.833 260.5,368.5C 241.288,369.022 222.955,365.355 205.5,357.5C 205.667,287.499 205.5,217.499 205,147.5C 200.112,154.609 196.279,162.276 193.5,170.5C 195.567,171.134 197.4,172.134 199,173.5C 197.111,257.182 194.444,340.849 191,424.5C 188.954,426.7 187.954,429.367 188,432.5C 187.409,458.921 186.242,485.254 184.5,511.5 Z"/></g>
<g><path style="opacity:0.951" fill="#000000" d="M 301.5,96.5 C 315.15,95.993 326.317,100.993 335,111.5C 344.63,125.101 351.297,140.101 355,156.5C 358.365,171.354 360.865,186.354 362.5,201.5C 361.388,214.455 354.721,223.288 342.5,228C 338.859,229.269 335.192,230.436 331.5,231.5C 332.444,202.279 328.278,173.613 319,145.5C 313.71,128.931 307.877,112.598 301.5,96.5 Z"/></g>
<g><path style="opacity:0.918" fill="#000000" d="M 237.5,200.5 C 245.196,200.169 252.862,200.503 260.5,201.5C 254.083,213.34 246.916,224.673 239,235.5C 226.77,230.035 223.103,221.035 228,208.5C 230.772,205.217 233.939,202.55 237.5,200.5 Z"/></g>
<g><path style="opacity:0.922" fill="#000000" d="M 205.5,367.5 C 223.005,375.134 241.338,378.801 260.5,378.5C 260.66,380.199 260.494,381.866 260,383.5C 251.392,390.375 241.558,394.542 230.5,396C 222.213,397.238 213.88,397.738 205.5,397.5C 205.5,387.5 205.5,377.5 205.5,367.5 Z"/></g>
<g><path style="opacity:0.919" fill="#000000" d="M 257.5,396.5 C 258.5,396.5 259.5,396.5 260.5,396.5C 260.5,405.5 260.5,414.5 260.5,423.5C 244.339,424.297 228.339,423.13 212.5,420C 210.238,419.358 208.071,418.525 206,417.5C 205.502,414.183 205.335,410.85 205.5,407.5C 220.584,408.115 235.25,405.948 249.5,401C 252.391,399.726 255.058,398.226 257.5,396.5 Z"/></g>
<g><path style="opacity:0.931" fill="#000000" d="M 205.5,428.5 C 223.548,432.937 241.881,434.604 260.5,433.5C 259.377,450.789 250.211,460.456 233,462.5C 213.382,459.708 204.215,448.375 205.5,428.5 Z"/></g>
</svg>
