<?xml version="1.0" encoding="UTF-8"?>
<!DOCTYPE svg PUBLIC "-//W3C//DTD SVG 1.1//EN" "http://www.w3.org/Graphics/SVG/1.1/DTD/svg11.dtd">
<svg xmlns="http://www.w3.org/2000/svg" version="1.1" width="512px" height="512px" style="shape-rendering:geometricPrecision; text-rendering:geometricPrecision; image-rendering:optimizeQuality; fill-rule:evenodd; clip-rule:evenodd" xmlns:xlink="http://www.w3.org/1999/xlink">
<g><path style="opacity:0.975" fill="#000000" d="M 136.5,11.5 C 158.417,11.9542 175.084,21.4542 186.5,40C 222.773,37.772 240.106,54.9387 238.5,91.5C 237.822,96.8142 237.322,102.148 237,107.5C 235.99,111.843 233.49,115.01 229.5,117C 221.785,117.762 214.119,117.429 206.5,116C 200.691,113.89 197.691,109.724 197.5,103.5C 200.231,93.4235 200.065,83.4235 197,73.5C 195.92,71.0038 194.586,68.6705 193,66.5C 190.62,91.8694 177.453,108.703 153.5,117C 122.417,122.712 100.584,111.212 88,82.5C 86.6145,77.2392 85.6145,71.9059 85,66.5C 81.6317,70.9355 79.6317,75.9355 79,81.5C 78.394,88.8968 78.894,96.2301 80.5,103.5C 80.3089,109.724 77.3089,113.89 71.5,116C 63.8812,117.429 56.2146,117.762 48.5,117C 44.9421,115.108 42.4421,112.275 41,108.5C 39.171,95.1233 39.5044,81.79 42,68.5C 45.2949,55.2036 53.4616,46.3703 66.5,42C 74.7285,39.5849 83.0618,38.9182 91.5,40C 101.756,22.879 116.756,13.379 136.5,11.5 Z"/></g>
<g><path style="opacity:0.978" fill="#000000" d="M 365.5,23.5 C 389.965,21.9808 408.465,31.6475 421,52.5C 432.566,82.1245 425.399,105.958 399.5,124C 371.015,136.707 347.182,130.873 328,106.5C 313.085,77.4068 318.251,52.5735 343.5,32C 350.461,27.8523 357.795,25.019 365.5,23.5 Z"/></g>
<g><path style="opacity:0.986" fill="#000000" d="M 511.5,295.5 C 511.5,300.167 511.5,304.833 511.5,309.5C 506.092,322.211 496.425,327.711 482.5,326C 475.954,323.982 470.787,320.148 467,314.5C 456,295.5 445,276.5 434,257.5C 433.667,326.833 433.333,396.167 433,465.5C 428.186,482.663 417.019,489.163 399.5,485C 392.667,482.167 387.833,477.333 385,470.5C 383.682,425.892 383.015,381.226 383,336.5C 381.7,328.76 377.2,325.927 369.5,328C 367.19,329.637 365.69,331.804 365,334.5C 364.667,379.167 364.333,423.833 364,468.5C 355.481,486.261 342.315,490.761 324.5,482C 319.705,478.245 316.538,473.412 315,467.5C 314.667,397.5 314.333,327.5 314,257.5C 302.252,277.998 290.252,298.331 278,318.5C 268.082,327.705 257.248,328.872 245.5,322C 243.548,319.926 241.715,317.759 240,315.5C 225.748,291.998 211.748,268.332 198,244.5C 197.333,252.833 197.333,261.167 198,269.5C 203.588,307.781 208.754,346.115 213.5,384.5C 214.152,395.847 208.819,401.847 197.5,402.5C 197.667,428.502 197.5,454.502 197,480.5C 192.919,491.972 184.752,498.305 172.5,499.5C 161.157,498.654 153.324,492.988 149,482.5C 147.536,455.884 147.036,429.218 147.5,402.5C 141.167,402.5 134.833,402.5 128.5,402.5C 128.667,428.502 128.5,454.502 128,480.5C 124.242,492.468 116.075,498.801 103.5,499.5C 91.7361,498.563 83.9028,492.563 80,481.5C 78.5361,455.218 78.0361,428.885 78.5,402.5C 68.1335,401.299 62.8001,395.466 62.5,385C 67.573,347.156 72.7397,309.322 78,271.5C 78.6667,262.5 78.6667,253.5 78,244.5C 66.3333,264.5 54.6667,284.5 43,304.5C 31.9624,316.54 19.7958,318.04 6.5,309C 3.77106,305.692 1.43772,302.192 -0.5,298.5C -0.5,293.833 -0.5,289.167 -0.5,284.5C 28.075,233.409 57.7417,182.909 88.5,133C 91.0618,130.587 94.0618,128.92 97.5,128C 124.5,127.333 151.5,127.333 178.5,128C 184.038,130.183 188.538,133.683 192,138.5C 214.162,177.495 236.829,216.162 260,254.5C 280.252,220.331 300.252,185.997 320,151.5C 323.887,144.613 329.721,140.447 337.5,139C 361.833,138.333 386.167,138.333 410.5,139C 418.279,140.447 424.113,144.613 428,151.5C 456.096,199.41 483.929,247.41 511.5,295.5 Z"/></g>
</svg>
