<?xml version="1.0" encoding="UTF-8"?>
<!DOCTYPE svg PUBLIC "-//W3C//DTD SVG 1.1//EN" "http://www.w3.org/Graphics/SVG/1.1/DTD/svg11.dtd">
<svg xmlns="http://www.w3.org/2000/svg" version="1.1" width="512px" height="512px" style="shape-rendering:geometricPrecision; text-rendering:geometricPrecision; image-rendering:optimizeQuality; fill-rule:evenodd; clip-rule:evenodd" xmlns:xlink="http://www.w3.org/1999/xlink">
<g><path style="opacity:0.991" fill="#000000" d="M 234.5,52.5 C 280.854,52.0574 327.187,52.5574 373.5,54C 406.901,61.4057 424.401,82.2391 426,116.5C 426.667,209.167 426.667,301.833 426,394.5C 424.401,428.761 406.901,449.594 373.5,457C 327.186,458.609 280.853,458.943 234.5,458C 205.436,457.566 185.269,444.066 174,417.5C 171.453,408.007 170.12,398.34 170,388.5C 169.5,367.169 169.333,345.836 169.5,324.5C 200.502,324.667 231.502,324.5 262.5,324C 300.476,316.907 321.143,294.074 324.5,255.5C 321.141,216.92 300.474,194.087 262.5,187C 231.502,186.5 200.502,186.333 169.5,186.5C 169.333,165.164 169.5,143.831 170,122.5C 170.648,79.6929 192.148,56.3596 234.5,52.5 Z"/></g>
<g><path style="opacity:0.982" fill="#000000" d="M 89.5,164.5 C 112.31,163.81 123.143,174.81 122,197.5C 121.562,200.376 120.562,203.043 119,205.5C 112.198,213.303 105.031,220.803 97.5,228C 152.167,228.333 206.833,228.667 261.5,229C 275.006,232.673 282.006,241.507 282.5,255.5C 282.006,269.493 275.006,278.327 261.5,282C 206.833,282.333 152.167,282.667 97.5,283C 105.031,290.197 112.198,297.697 119,305.5C 126.536,322.879 122.036,336.046 105.5,345C 97.2182,347.421 89.2182,346.754 81.5,343C 57.3614,319.862 33.528,296.362 10,272.5C 2.66667,261.167 2.66667,249.833 10,238.5C 32.8333,215.667 55.6667,192.833 78.5,170C 81.9905,167.588 85.6571,165.755 89.5,164.5 Z"/></g>
</svg>
