<?xml version="1.0" encoding="UTF-8"?>
<!DOCTYPE svg PUBLIC "-//W3C//DTD SVG 1.1//EN" "http://www.w3.org/Graphics/SVG/1.1/DTD/svg11.dtd">
<svg xmlns="http://www.w3.org/2000/svg" version="1.1" width="512px" height="512px" style="shape-rendering:geometricPrecision; text-rendering:geometricPrecision; image-rendering:optimizeQuality; fill-rule:evenodd; clip-rule:evenodd" xmlns:xlink="http://www.w3.org/1999/xlink">
<g><path style="opacity:0.956" fill="#000000" d="M -0.5,43.5 C -0.5,40.8333 -0.5,38.1667 -0.5,35.5C 0.626561,34.8783 1.62656,34.045 2.5,33C 18.1667,32.3333 33.8333,32.3333 49.5,33C 60.3474,44.0143 71.3474,54.8476 82.5,65.5C 94.6817,53.4845 107.015,41.6512 119.5,30C 124.357,27.7896 129.024,28.123 133.5,31C 136.833,34.3333 140.167,37.6667 143.5,41C 111.32,73.3471 78.9863,105.514 46.5,137.5C 42.4804,134.314 38.9804,130.647 36,126.5C 33.7741,121.314 34.1074,116.314 37,111.5C 48.6809,99.986 60.1809,88.3193 71.5,76.5C 62.0143,66.5141 52.3477,56.6808 42.5,47C 29.1667,46.6667 15.8333,46.3333 2.5,46C 1.62656,44.955 0.626561,44.1217 -0.5,43.5 Z"/></g>
<g><path style="opacity:0.949" fill="#000000" d="M 160.5,41.5 C 161.552,41.3505 162.552,41.5172 163.5,42C 166.667,45.1667 169.833,48.3333 173,51.5C 175.851,56.6799 176.185,62.0132 174,67.5C 140.5,101 107,134.5 73.5,168C 68.5,170 63.5,170 58.5,168C 54.5,164 50.5,160 46.5,156C 84.7014,117.965 122.701,79.7987 160.5,41.5 Z"/></g>
<g><path style="opacity:0.971" fill="#000000" d="M 511.5,47.5 C 511.5,86.5 511.5,125.5 511.5,164.5C 450.167,164.5 388.833,164.5 327.5,164.5C 327.5,125.5 327.5,86.5 327.5,47.5C 388.833,47.5 450.167,47.5 511.5,47.5 Z M 346.5,64.5 C 355.506,64.3336 364.506,64.5002 373.5,65C 379.31,68.597 379.643,72.597 374.5,77C 365.167,77.6667 355.833,77.6667 346.5,77C 342.21,74.4693 341.377,70.9693 344,66.5C 344.995,65.9341 345.828,65.2674 346.5,64.5 Z M 347.5,87.5 C 355.84,87.3336 364.173,87.5003 372.5,88C 379.119,91.1834 379.786,95.1834 374.5,100C 364.833,100.667 355.167,100.667 345.5,100C 341.142,94.9841 341.808,90.8175 347.5,87.5 Z M 422.5,88.5 C 425.099,88.5494 427.266,89.5494 429,91.5C 431.87,100.612 435.037,109.612 438.5,118.5C 440.562,112.482 442.729,106.482 445,100.5C 448.333,97.8333 451.667,97.8333 455,100.5C 457.619,107.698 460.619,114.698 464,121.5C 464.833,120.667 465.667,119.833 466.5,119C 475.5,118.333 484.5,118.333 493.5,119C 498.777,123.414 498.444,127.414 492.5,131C 485.5,131.333 478.5,131.667 471.5,132C 469.126,134.039 467.126,136.372 465.5,139C 461.942,141.154 458.775,140.654 456,137.5C 454.424,133.35 452.591,129.35 450.5,125.5C 448.241,131.776 446.075,138.109 444,144.5C 438.668,149 434.668,148 432,141.5C 429.137,132.042 425.971,122.709 422.5,113.5C 420.747,116.005 419.247,118.671 418,121.5C 416.829,122.893 415.329,123.727 413.5,124C 406.833,124.667 400.167,124.667 393.5,124C 387.756,120.868 387.089,116.868 391.5,112C 397.167,111.667 402.833,111.333 408.5,111C 411.794,104.912 414.961,98.7449 418,92.5C 419.397,90.9297 420.897,89.5964 422.5,88.5 Z M 345.5,111.5 C 355.172,111.334 364.839,111.5 374.5,112C 379.739,116.957 379.072,120.957 372.5,124C 364.167,124.667 355.833,124.667 347.5,124C 341.699,120.695 341.033,116.528 345.5,111.5 Z M 346.5,134.5 C 355.506,134.334 364.506,134.5 373.5,135C 379.891,138.921 379.891,142.921 373.5,147C 364.5,147.667 355.5,147.667 346.5,147C 340.069,142.9 340.069,138.734 346.5,134.5 Z"/></g>
<g><path style="opacity:0.933" fill="#000000" d="M 233.5,73.5 C 248.239,73.0502 262.905,73.5502 277.5,75C 286.334,79.8352 290,87.3352 288.5,97.5C 265.5,97.5 242.5,97.5 219.5,97.5C 218.073,85.6608 222.739,77.6608 233.5,73.5 Z"/></g>
<g><path style="opacity:0.88" fill="#000000" d="M 175.5,83.5 C 179.642,85.1195 183.142,87.7862 186,91.5C 186.667,93.8333 186.667,96.1667 186,98.5C 181.911,103.262 177.244,107.262 172,110.5C 167.259,107.766 163.093,104.266 159.5,100C 165.036,94.6314 170.37,89.1314 175.5,83.5 Z"/></g>
<g><path style="opacity:0.965" fill="#000000" d="M 219.5,110.5 C 242.5,110.5 265.5,110.5 288.5,110.5C 288.666,119.173 288.5,127.84 288,136.5C 282.375,157.108 268.875,166.275 247.5,164C 232.112,159.946 222.945,150.112 220,134.5C 219.5,126.507 219.334,118.507 219.5,110.5 Z"/></g>
<g><path style="opacity:0.876" fill="#000000" d="M 140.5,118.5 C 144.067,120.557 147.234,123.223 150,126.5C 151.373,128.695 151.706,131.029 151,133.5C 147.167,137.333 143.333,141.167 139.5,145C 137.5,145.667 135.5,145.667 133.5,145C 130.317,141.985 127.317,138.818 124.5,135.5C 129.855,129.813 135.188,124.146 140.5,118.5 Z"/></g>
<g><path style="opacity:0.888" fill="#000000" d="M 104.5,154.5 C 108.642,156.12 112.142,158.786 115,162.5C 115.667,164.833 115.667,167.167 115,169.5C 111.5,173 108,176.5 104.5,180C 102.167,180.667 99.8333,180.667 97.5,180C 94.4489,177.286 91.7822,174.286 89.5,171C 94.3245,165.342 99.3245,159.842 104.5,154.5 Z"/></g>
<g><path style="opacity:0.963" fill="#000000" d="M 229.5,177.5 C 245.837,177.333 262.17,177.5 278.5,178C 297.983,181.472 310.483,192.638 316,211.5C 316.828,215.871 316.661,220.205 315.5,224.5C 290.357,221.391 265.19,218.391 240,215.5C 227.241,217.097 219.407,224.097 216.5,236.5C 208.102,236.546 199.769,235.88 191.5,234.5C 187.695,204.049 200.361,185.049 229.5,177.5 Z"/></g>
<g><path style="opacity:0.962" fill="#000000" d="M 119.5,206.5 C 142.196,204.376 154.863,214.543 157.5,237C 156.015,255.818 145.848,265.985 127,267.5C 111.419,266.387 101.419,258.387 97,243.5C 94.8396,225.135 102.34,212.802 119.5,206.5 Z"/></g>
<g><path style="opacity:0.983" fill="#000000" d="M 238.5,228.5 C 297.144,235.109 355.811,241.609 414.5,248C 421.947,247.559 428.113,250.059 433,255.5C 433.333,256.833 433.667,258.167 434,259.5C 434.5,285.831 434.667,312.165 434.5,338.5C 365.833,338.5 297.167,338.5 228.5,338.5C 228.333,305.165 228.5,271.832 229,238.5C 230.35,233.319 233.517,229.986 238.5,228.5 Z"/></g>
<g><path style="opacity:0.972" fill="#000000" d="M 183.5,247.5 C 194.178,248.002 204.845,248.668 215.5,249.5C 215.5,265.5 215.5,281.5 215.5,297.5C 204.495,297.667 193.495,297.5 182.5,297C 164.459,292.089 157.959,280.589 163,262.5C 167.47,254.19 174.303,249.19 183.5,247.5 Z"/></g>
<g><path style="opacity:0.966" fill="#000000" d="M 447.5,267.5 C 456.812,268.404 466.146,269.404 475.5,270.5C 478.754,274.768 480.088,279.602 479.5,285C 479.647,288.995 478.98,292.828 477.5,296.5C 467.522,297.499 457.522,297.832 447.5,297.5C 447.5,287.5 447.5,277.5 447.5,267.5 Z"/></g>
<g><path style="opacity:0.974" fill="#000000" d="M 79.5,280.5 C 102.833,280.5 126.167,280.5 149.5,280.5C 150.683,286.701 153.35,292.201 157.5,297C 130.502,297.5 103.502,297.667 76.5,297.5C 76.3342,292.821 76.5008,288.155 77,283.5C 78.045,282.627 78.8783,281.627 79.5,280.5 Z"/></g>
<g><path style="opacity:0.952" fill="#000000" d="M 60.5,310.5 C 112.167,310.5 163.833,310.5 215.5,310.5C 215.5,319.833 215.5,329.167 215.5,338.5C 159.167,338.5 102.833,338.5 46.5,338.5C 46.1712,331.759 46.6712,325.092 48,318.5C 51.0151,313.916 55.1817,311.249 60.5,310.5 Z"/></g>
<g><path style="opacity:0.946" fill="#000000" d="M 447.5,310.5 C 463.882,310.077 480.215,310.577 496.5,312C 500,313.5 502.5,316 504,319.5C 505.257,325.769 505.757,332.102 505.5,338.5C 486.167,338.5 466.833,338.5 447.5,338.5C 447.5,329.167 447.5,319.833 447.5,310.5 Z"/></g>
<g><path style="opacity:0.94" fill="#000000" d="M 76.5,351.5 C 209.5,351.5 342.5,351.5 475.5,351.5C 476.569,361.879 472.236,368.713 462.5,372C 338.167,372.667 213.833,372.667 89.5,372C 79.7142,368.699 75.3808,361.866 76.5,351.5 Z"/></g>
<g><path style="opacity:0.934" fill="#000000" d="M 111.5,385.5 C 118.5,385.5 125.5,385.5 132.5,385.5C 132.5,417.833 132.5,450.167 132.5,482.5C 125.5,482.5 118.5,482.5 111.5,482.5C 111.5,450.167 111.5,417.833 111.5,385.5 Z"/></g>
<g><path style="opacity:0.935" fill="#000000" d="M 419.5,385.5 C 426.5,385.5 433.5,385.5 440.5,385.5C 440.5,417.833 440.5,450.167 440.5,482.5C 433.5,482.5 426.5,482.5 419.5,482.5C 419.5,450.167 419.5,417.833 419.5,385.5 Z"/></g>
</svg>
