<?xml version="1.0" encoding="UTF-8"?>
<!DOCTYPE svg PUBLIC "-//W3C//DTD SVG 1.1//EN" "http://www.w3.org/Graphics/SVG/1.1/DTD/svg11.dtd">
<svg xmlns="http://www.w3.org/2000/svg" version="1.1" width="512px" height="512px" style="shape-rendering:geometricPrecision; text-rendering:geometricPrecision; image-rendering:optimizeQuality; fill-rule:evenodd; clip-rule:evenodd" xmlns:xlink="http://www.w3.org/1999/xlink">
<g><path style="opacity:0.976" fill="#000000" d="M 236.5,-0.5 C 246.833,-0.5 257.167,-0.5 267.5,-0.5C 307.339,7.48569 338.506,28.4857 361,62.5C 380.71,93.9659 391.376,128.299 393,165.5C 394.389,194.56 391.722,223.227 385,251.5C 374.88,286.161 351.714,301.828 315.5,298.5C 301.15,298.207 286.816,297.541 272.5,296.5C 265.608,296.673 258.774,297.339 252,298.5C 245.883,297.472 239.716,296.805 233.5,296.5C 215.529,298.23 197.529,299.564 179.5,300.5C 150.266,301.817 130.766,288.817 121,261.5C 115.074,241.944 111.741,221.944 111,201.5C 106.464,152.836 116.464,107.503 141,65.5C 157.723,38.7723 180.556,19.2723 209.5,7C 218.435,3.78915 227.435,1.28915 236.5,-0.5 Z M 264.5,62.5 C 295.579,76.2798 315.746,99.6132 325,132.5C 326.298,137.287 329.131,140.62 333.5,142.5C 343.008,138.163 350.508,131.496 356,122.5C 360.873,119.747 364.54,121.08 367,126.5C 373.544,143.794 369.71,158.294 355.5,170C 351.563,170.918 347.73,172.085 344,173.5C 335.618,207.449 319.118,236.615 294.5,261C 265.556,285.867 236.889,285.533 208.5,260C 184.46,235.771 168.294,206.938 160,173.5C 147.897,171.779 139.897,165.112 136,153.5C 132.748,145.158 132.748,136.825 136,128.5C 137.3,125.568 139.3,123.234 142,121.5C 149.702,130.26 159.536,134.593 171.5,134.5C 193.735,132.378 213.402,124.212 230.5,110C 237.961,103.883 244.628,97.0497 250.5,89.5C 267.662,93.5154 281.496,102.515 292,116.5C 295,121.5 298,126.5 301,131.5C 297.949,105.395 285.282,85.3954 263,71.5C 262.861,68.4248 263.361,65.4248 264.5,62.5 Z"/></g>
<g><path style="opacity:0.993" fill="#000000" d="M 446.5,511.5 C 319.167,511.5 191.833,511.5 64.5,511.5C 64.3334,479.498 64.5,447.498 65,415.5C 69.8136,387.038 82.6469,362.871 103.5,343C 117.934,329.36 134.434,318.86 153,311.5C 158.921,320.428 165.255,329.095 172,337.5C 177.167,342 182.333,346.5 187.5,351C 210.326,362.912 232.992,375.079 255.5,387.5C 278.008,375.079 300.674,362.912 323.5,351C 328.667,346.5 333.833,342 339,337.5C 345.745,329.095 352.079,320.428 358,311.5C 398.435,327.602 426.435,355.935 442,396.5C 443.809,402.737 445.143,409.07 446,415.5C 446.5,447.498 446.667,479.498 446.5,511.5 Z"/></g>
</svg>
